<svg id="Capa_1" enable-background="new 0 0 512 512" height="512" viewBox="0 0 512 512" width="512" xmlns="http://www.w3.org/2000/svg"><g><path d="m237.83 270.712c-2.58 3.231-7.286 3.77-10.517 1.19-3.232-2.551-3.77-7.285-1.219-10.517 5.414-6.774 11.367-12.586 18.114-17.631 6.689-4.989 14.202-9.269 22.762-13.012 3.345-1.445 6.35-3.005 10.006-3.713 6.066-1.19 11.084.142 12.444 7.059.737 3.657-1.19 7.909-2.75 11.367-2.324 5.159-3.77 11.594-4.706 17.121-.851 5.188-1.304 10.347-1.219 14.995.142 5.387.935 10.46 2.608 15.167 2.693 7.625 6.689 11.281 11.112 17.206 6.009 8.05 10.176 16.47 12.585 25.371 1.645 6.151 2.438 12.501 2.438 19.105 1.559-2.438 2.919-4.876 4.11-7.37 2.409-5.131 4.535-11.509 5.301-17.234.283-1.984.369-4.054.34-6.917-.113-10.148 2.864-14.57 9.043-14.656 4.252-.028 7.795 3.317 11.622 9.043 6.236 9.327 11.622 18.312 16.073 27.638 4.422 9.27 7.965 18.964 10.574 29.793 2.466-3.571 4.791-7.37 6.747-11.396 3.203-6.491 5.471-13.464 6.236-20.664.114-1.304.595-2.608 1.446-3.742 2.495-3.288 7.172-3.968 10.46-1.474 2.75 2.041 7.115 5.386 12.161 10.006 5.103 4.678 10.8 10.573 16.073 17.661 2.466 3.316 1.757 7.994-1.559 10.46s-7.994 1.757-10.46-1.559c-4.649-6.265-9.667-11.452-14.117-15.534-.595-.539-1.162-1.049-1.701-1.531-1.361 4.508-3.09 8.845-5.103 12.955-4.734 9.638-10.885 17.972-16.81 24.718 1.304 12.898.964 25.569-1.899 38.325-2.892 12.983-8.108 24.633-15.279 35.008-7.767 11.198-17.773 20.863-29.594 29.056h173.851v-30.303c0-40.536-18.511-58.337-30.785-65.679-.51 11.112-5.442 20.324-11.594 27.383-5.414 6.208-16.215 14.57-24.633 16.072-4.082.709-7.965-2.041-8.674-6.095-.198-1.19-.113-2.324.199-3.401 1.389-6.151 1.956-11.962 1.871-17.433s-.851-10.743-2.126-15.761c-1.021-3.997 1.389-8.079 5.414-9.099 3.997-1.021 8.079 1.389 9.1 5.414 1.53 5.954 2.438 12.388 2.551 19.276.028 2.041 0 4.11-.113 6.179 1.729-1.417 3.487-3.09 5.159-4.989 5.272-6.066 9.213-14.371 7.427-24.52-.397-2.353-1.332-4.394-.737-6.831 1.02-4.025 5.074-6.463 9.1-5.442.142.028 52.838 12.529 52.838 84.927v37.815c0 4.138-3.345 7.483-7.484 7.483-165.687 0-331.345 0-497.004 0-4.138-.002-7.512-3.347-7.512-7.485v-37.815c0-34.243 16.016-75.686 52.867-84.927 1.191-.312 2.495-.312 3.799.057 3.968 1.105 6.321 5.216 5.215 9.184-.255.936-.482 1.927-.68 3.033-1.786 10.149 2.154 18.455 7.427 24.52 1.672 1.871 3.43 3.544 5.159 4.989-1.276-21.657 5.896-39.685 15.222-53.745 10.998-16.526 24.945-27.412 31.238-32.146 1.105-.936 2.494-1.53 4.025-1.701 4.11-.425 7.795 2.58 8.221 6.69.964 9.042 4.28 17.575 8.589 25.115 1.701 2.976 3.544 5.811 5.471 8.476 2.24-12.359 6.322-24.917 12.218-37.531 1.984-4.224 4.139-8.391 6.293-12.501 1.616-3.089 3.203-6.661 5.698-9.213 2.551-2.608 5.301-3.572 8.249-3.288 3.033.312 5.754 2.126 7.427 4.649 2.665 3.543 4.422 8.164 7.002 12.047 1.19 1.814 2.863 4.28 4.734 6.86.227-2.495.51-5.018.878-7.54 1.219-8.702 3.118-17.915 5.669-26.391 1.049-3.43 2.239-6.917 3.6-10.488 1.502-3.855 5.839-5.755 9.666-4.28 3.855 1.502 5.783 5.81 4.28 9.666-1.134 2.977-2.183 6.094-3.175 9.383-2.409 7.937-4.053 15.931-5.244 24.18-.595 4.309-1.19 9.014-1.049 13.351.17 5.103.312 11.934-4.564 15.024-4.677 2.948-9.496.794-14.06-3.997-2.324-2.41-4.904-5.726-7.314-8.986-3.033-4.167-6.378-8.787-8.929-13.351-1.928 3.713-3.884 7.455-5.641 11.197-11.31 24.18-15.166 47.821-11.537 70.073 3.6 21.997 14.599 42.832 32.996 61.626 3.799 3.855 8.674 8.305 13.748 12.416 2.835 2.296 5.754 4.451 8.532 6.321-.595-2.069-1.134-4.195-1.616-6.321-2.522-10.772-3.855-20.977-3.543-31.975.454-15.591 4.252-29.225 11.594-40.678 8.844-13.805 22.649-24.18 41.755-30.785 2.919-1.021 6.35-2.098 9.581-1.644 5.358.766 8.958 3.713 7.938 10.771-.454 3.147-1.928 5.726-2.665 8.674-.908 3.487-1.474 7.371-1.73 11.226-.34 5.896-.085 12.132 2.269 17.631 1.927 4.507 5.527 7.852 8.305 11.735 7.229 10.12 12.076 22.31 13.352 33.591.595 5.443.397 10.715-.737 15.535 16.696-8.816 30.359-20.013 39.884-33.79 5.953-8.56 10.29-18.17 12.813-28.913 3.004-12.812 3.061-25.455 1.36-38.382-.567-4.309-1.36-8.703-2.409-13.125-2.353-10.062-5.641-19.021-9.751-27.638-2.693-5.726-5.754-11.225-9.156-16.753-.312 1.616-.708 3.345-1.247 5.386-.709 3.799-3.203 9.865-4.904 13.408-3.373 7.2-7.71 13.21-12.586 19.304-2.523 3.146-5.613 6.86-8.788 8.362-9.099 4.365-14.938 2.211-12.246-14.542 1.587-9.865 1.332-18.936-.936-27.355-1.871-7.002-5.159-13.663-9.893-20.07-5.499-7.455-9.95-11.564-13.436-21.43-2.126-5.981-3.43-13.493-3.43-19.843-.113-5.67.397-11.764 1.389-17.717.851-5.046 2.041-10.063 3.487-14.655-6.492 2.977-12.274 6.378-17.518 10.29-5.727 4.283-10.801 9.215-15.336 14.941zm-29.254-174.616v36.482h21.628v-36.482zm-14.995 36.482v-36.482h-37.985l13.748 36.482zm124.867-36.482v36.482h24.208l13.748-36.482zm-14.995 36.482v-36.482h-21.628v36.482zm-36.625 0v-36.482h-21.628v36.482zm133.627-66.076v22.082c0 4.139-3.345 7.512-7.483 7.512h-20.552l-17.603 46.63c-1.105 2.977-3.969 4.847-7.002 4.847h-183.63c-3.402 0-6.265-2.268-7.2-5.357l-17.377-46.12h-20.551c-4.167 0-7.512-3.373-7.512-7.512v-22.082h-13.38c-4.139 0-7.483-3.374-7.483-7.512v-51.478c0-4.138 3.344-7.512 7.483-7.512h58.622c4.138 0 7.512 3.374 7.512 7.512 0 4.139-3.374 7.484-7.512 7.484h-51.11v36.482h122.543c-3.459-5.216-5.471-11.509-5.471-18.227 0-6.747 2.013-13.012 5.471-18.255h-37.446c-4.139 0-7.512-3.345-7.512-7.484 0-4.138 3.373-7.512 7.512-7.512h223.061c4.139 0 7.512 3.374 7.512 7.512v51.478c0 4.139-3.373 7.512-7.512 7.512zm-273.915 0v14.599h258.919v-14.599h-129.459zm157.268-51.506c3.43 5.244 5.443 11.509 5.443 18.255 0 6.718-2.013 13.011-5.443 18.227h122.515v-36.482zm-14.911 5.357c-3.288-3.317-7.852-5.357-12.897-5.357-5.046 0-9.581 2.041-12.898 5.357-3.288 3.289-5.329 7.853-5.329 12.898 0 5.046 2.041 9.582 5.329 12.898 3.316 3.288 7.852 5.329 12.898 5.329s9.609-2.041 12.897-5.329c3.317-3.316 5.357-7.852 5.357-12.898.001-5.045-2.04-9.609-5.357-12.898zm-75.316 476.651c-3.884-3.316-7.484-6.718-10.489-9.78-20.636-21.089-32.995-44.646-37.106-69.704-1.077-6.662-1.587-13.436-1.502-20.268-5.527-5.98-11.48-13.464-16.413-22.082-3.203-5.613-5.953-11.707-7.88-18.227-5.812 5.131-12.785 12.247-18.681 21.147-9.553 14.372-16.413 33.676-10.913 57.317.935 4.025-1.587 8.05-5.613 8.958-1.757.425-3.062.142-4.706-.312-5.414-1.502-15.279-6.945-22.876-15.647-6.18-7.059-11.083-16.271-11.594-27.383-12.302 7.342-30.813 25.143-30.813 65.679v30.303h178.586zm38.607 0h50.061c3.798-3.883 4.961-10.375 4.138-17.689-.992-8.788-4.875-18.425-10.659-26.532-3.94-5.499-6.803-7.342-9.864-14.542-3.317-7.71-3.94-16.072-3.458-24.378.255-4.167.822-8.306 1.672-12.105-13.181 5.415-22.762 13.097-28.998 22.819-5.84 9.1-8.873 20.183-9.241 33.081-.255 9.666.964 18.624 3.175 28.091.907 3.942 1.984 7.797 3.174 11.255z"/></g></svg>