<svg width="16" height="17" viewBox="0 0 16 17" fill="none" xmlns="http://www.w3.org/2000/svg">
<path d="M8 11C5.33 11 0 12.34 0 15V17H16V15C16 12.34 10.67 11 8 11ZM2 15C2.22 14.28 5.31 13 8 13C10.7 13 13.8 14.29 14 15H2Z" fill="white"/>
<path d="M3.74 5H4C4 7.21 5.79 9 8 9C10.21 9 12 7.21 12 5H12.26C12.53 5 12.75 4.78 12.75 4.51V4.49C12.75 4.22 12.53 4 12.26 4H12C12 2.52 11.19 1.25 10 0.55V1.5C10 1.78 9.78 2 9.5 2C9.22 2 9 1.78 9 1.5V0.14C8.68 0.0599999 8.35 0 8 0C7.65 0 7.32 0.0599999 7 0.14V1.5C7 1.78 6.78 2 6.5 2C6.22 2 6 1.78 6 1.5V0.55C4.81 1.25 4 2.52 4 4H3.74C3.47 4 3.25 4.22 3.25 4.49V4.52C3.25 4.78 3.47 5 3.74 5ZM10 5C10 6.1 9.1 7 8 7C6.9 7 6 6.1 6 5H10Z" fill="white"/>
</svg>
