<?xml version="1.0" encoding="UTF-8"?>
<svg xmlns="http://www.w3.org/2000/svg" id="Layer_3" data-name="Layer 3" viewBox="0 0 64 64" width="512" height="512"><path d="M55,14H33a8.009,8.009,0,0,0-8,8V45.439c-.1-.044-.2-.095-.3-.132A5.027,5.027,0,0,0,20,42a4.513,4.513,0,0,0-.775.068A5.952,5.952,0,0,0,16,39.353V33.867c4.493-.555,8-4.8,8-9.935,0-4.885-3.536-19-9-19-1.379,0-2.635.9-3.742,2.323A3.434,3.434,0,0,0,10,7C4.536,7,1,21.115,1,26c0,5.138,3.507,9.379,8,9.935v5.17A6,6,0,0,0,4.083,46H4a3,3,0,0,0-3,3v9a1,1,0,0,0,1,1H62a1,1,0,0,0,1-1V22A8.009,8.009,0,0,0,55,14ZM11,39.808V35.93a8.374,8.374,0,0,0,3-.981V39A5.917,5.917,0,0,0,11,39.808ZM15,6.932c3.339,0,7,11.933,7,17,0,4.022-2.613,7.351-6,7.909V16.467l2.555-1.7L17.445,13.1l-3,2a1,1,0,0,0-.445.832v7l-2.4-1.8-1.2,1.6,3.6,2.7v6.409c-3.387-.558-6-3.887-6-7.909C8,18.865,11.661,6.932,15,6.932ZM3,26C3,20.933,6.661,9,10,9c.032,0,.065.016.1.018A37.517,37.517,0,0,0,6,23.932a9.937,9.937,0,0,0,6.407,9.573A6.188,6.188,0,0,1,10,34C6.14,34,3,30.411,3,26ZM3,49a1.016,1.016,0,0,1,1.516-.853,1,1,0,0,0,1.509-.959L6,47a4.008,4.008,0,0,1,4.02-4,1,1,0,0,0,.8-.4,3.975,3.975,0,0,1,6.916.995,1,1,0,0,0,1.251.593A3.171,3.171,0,0,1,20,44a3.007,3.007,0,0,1,2.915,2.329,1,1,0,0,0,.751.755,2.968,2.968,0,0,1,1.334.71V57H3Zm54-1.886a5,5,0,0,0-2.006.9A5,5,0,0,0,51,46V43a6.937,6.937,0,0,0-1-3.586V20h4a3,3,0,0,1,3,3ZM39,47V43a5,5,0,0,1,10,0v4a1,1,0,0,0,1,1h0a1,1,0,0,1,.707.292,1.031,1.031,0,0,1,.292.764.945.945,0,0,1-.945.944H38a1,1,0,0,1,0-2A1,1,0,0,0,39,47Zm9-27V37.264a6.961,6.961,0,0,0-8,0V20ZM38,37a6.009,6.009,0,0,0-5.932,5.1A5.841,5.841,0,0,0,31,42.006V23a3,3,0,0,1,3-3h4Zm-7,7.01a3.848,3.848,0,0,1,1.616.346,1,1,0,0,0,1.422-.971c0-.079-.014-.157-.024-.237A1.234,1.234,0,0,1,34,43a4,4,0,0,1,4-4v.413A6.944,6.944,0,0,0,37,43v3.171A3,3,0,0,0,38,52H50.055A2.961,2.961,0,0,0,53,49c0-.078-.016-.153-.022-.23A3,3,0,0,1,53.817,50a1,1,0,0,0,.8.656.929.929,0,0,0,.139.01,1,1,0,0,0,.814-.42A2.974,2.974,0,0,1,57,49.2V57H31ZM61,57H59V23a5.006,5.006,0,0,0-5-5H34a5.006,5.006,0,0,0-5,5V57H27V22a6.006,6.006,0,0,1,6-6H55a6.006,6.006,0,0,1,6,6Z"/></svg>
