<svg height="480pt" viewBox="0 -72 480 480" width="480pt" xmlns="http://www.w3.org/2000/svg"><path d="m456 0h-432c-13.253906 0-24 10.746094-24 24v288c0 13.253906 10.746094 24 24 24h432c13.253906 0 24-10.746094 24-24v-288c0-13.253906-10.746094-24-24-24zm8 312c0 4.417969-3.582031 8-8 8h-432c-4.417969 0-8-3.582031-8-8v-288c0-4.417969 3.582031-8 8-8h432c4.417969 0 8 3.582031 8 8zm0 0"/><path d="m288 32h-240c-8.835938 0-16 7.164062-16 16v240c0 8.835938 7.164062 16 16 16h240c8.835938 0 16-7.164062 16-16v-240c0-8.835938-7.164062-16-16-16zm-240 256v-240h240v240zm0 0"/><path d="m256 64h-176c-8.835938 0-16 7.164062-16 16v64c0 8.835938 7.164062 16 16 16h176c8.835938 0 16-7.164062 16-16v-64c0-8.835938-7.164062-16-16-16zm-176 80v-64h176v64zm0 0"/><path d="m80 184h32v16h-32zm0 0"/><path d="m128 184h32v16h-32zm0 0"/><path d="m176 184h32v16h-32zm0 0"/><path d="m224 184h32v16h-32zm0 0"/><path d="m80 216h32v16h-32zm0 0"/><path d="m128 216h32v16h-32zm0 0"/><path d="m176 216h32v16h-32zm0 0"/><path d="m224 216h32v16h-32zm0 0"/><path d="m80 248h32v16h-32zm0 0"/><path d="m128 248h32v16h-32zm0 0"/><path d="m176 248h32v16h-32zm0 0"/><path d="m224 248h32v16h-32zm0 0"/><path d="m384 112c-13.253906 0-24 10.746094-24 24h16c0-4.417969 3.582031-8 8-8s8 3.582031 8 8v32h16v-32c0-13.253906-10.746094-24-24-24zm0 0"/><path d="m384 192c-4.417969 0-8-3.582031-8-8v-32h-16v32c0 13.253906 10.746094 24 24 24s24-10.746094 24-24h-16c0 4.417969-3.582031 8-8 8zm0 0"/><path d="m424 152h16v96h-16zm0 0"/><path d="m384 80c-30.914062.035156-55.964844 25.085938-56 56v32h16v-32c0-22.089844 17.910156-40 40-40s40 17.910156 40 40h16c-.035156-30.914062-25.085938-55.964844-56-56zm0 0"/><path d="m328 184h16v64h-16zm0 0"/><path d="m160 104h16v16h-16zm0 0"/><path d="m192 104h16v16h-16zm0 0"/><path d="m128 104h16v16h-16zm0 0"/></svg>